<?xml version="1.0" encoding="UTF-8"?>
<svg xmlns="http://www.w3.org/2000/svg" width="1200" height="675" viewBox="0 0 1200 675" role="img" aria-label="GymTie Fit placeholder">
  <defs>
    <linearGradient id="bg" x1="0" y1="0" x2="1" y2="1">
      <stop offset="0%" stop-color="#1c1c24"/>
      <stop offset="100%" stop-color="#0b0b0f"/>
    </linearGradient>
    <linearGradient id="glow" x1="0.5" y1="0" x2="0.5" y2="1">
      <stop offset="0%" stop-color="#814AF6" stop-opacity="0.28"/>
      <stop offset="55%" stop-color="#814AF6" stop-opacity="0"/>
    </linearGradient>
    <pattern id="grid" width="48" height="48" patternUnits="userSpaceOnUse">
      <path d="M48 0H0V48" fill="none" stroke="rgba(255,255,255,0.04)" stroke-width="1"/>
    </pattern>
  </defs>
  <rect width="1200" height="675" fill="url(#bg)"/>
  <rect width="1200" height="675" fill="url(#grid)"/>
  <rect width="1200" height="280" fill="url(#glow)"/>
  <rect x="72" y="56" width="1056" height="563" rx="20" fill="#141418" stroke="rgba(255,255,255,0.1)" stroke-width="1"/>
  <rect x="72" y="56" width="1056" height="44" rx="20" fill="#1e1e24"/>
  <circle cx="98" cy="78" r="7" fill="#ff5f57"/>
  <circle cx="122" cy="78" r="7" fill="#febc2e"/>
  <circle cx="146" cy="78" r="7" fill="#28c840"/>
  <rect x="200" y="68" width="320" height="20" rx="10" fill="rgba(255,255,255,0.06)"/>
  <rect x="120" y="140" width="280" height="18" rx="9" fill="rgba(255,255,255,0.08)"/>
  <rect x="120" y="175" width="420" height="12" rx="6" fill="rgba(255,255,255,0.05)"/>
  <rect x="120" y="200" width="380" height="12" rx="6" fill="rgba(255,255,255,0.05)"/>
  <rect x="120" y="240" width="340" height="140" rx="16" fill="#814AF6" fill-opacity="0.12" stroke="#814AF6" stroke-opacity="0.25"/>
  <rect x="480" y="240" width="340" height="140" rx="16" fill="rgba(255,255,255,0.04)" stroke="rgba(255,255,255,0.08)"/>
  <rect x="840" y="240" width="240" height="140" rx="16" fill="rgba(255,255,255,0.04)" stroke="rgba(255,255,255,0.08)"/>
  <rect x="120" y="420" width="960" height="12" rx="6" fill="rgba(255,255,255,0.05)"/>
  <rect x="120" y="445" width="720" height="12" rx="6" fill="rgba(255,255,255,0.04)"/>
  <rect x="120" y="470" width="800" height="12" rx="6" fill="rgba(255,255,255,0.04)"/>
  <text x="600" y="318" text-anchor="middle" fill="#a78bfa" font-family="system-ui,-apple-system,sans-serif" font-size="42" font-weight="700">GymTie Fit</text>
  <text x="600" y="362" text-anchor="middle" fill="rgba(255,255,255,0.55)" font-family="system-ui,-apple-system,sans-serif" font-size="20">For members</text>
  <text x="600" y="620" text-anchor="middle" fill="rgba(255,255,255,0.35)" font-family="system-ui,-apple-system,sans-serif" font-size="14" letter-spacing="2">PLACEHOLDER — REPLACE WITH SCREENSHOT</text>
</svg>