<?xml version="1.0" standalone="no"?>
<svg viewBox="0 0 200 200" xmlns="http://www.w3.org/2000/svg">
  <path fill="#BAE6FF" d="M29.7,-56.1C36.6,-47.5,38.9,-35.6,43.9,-25.7C49,-15.8,56.8,-7.9,63.5,3.8C70.1,15.6,75.6,31.2,68.9,38.2C62.1,45.2,43.2,43.7,29.7,46.4C16.2,49.2,8.1,56.2,-1.1,58.1C-10.4,60.1,-20.7,56.9,-28.7,51C-36.7,45.1,-42.4,36.4,-43.3,27.5C-44.2,18.5,-40.3,9.3,-41.5,-0.7C-42.6,-10.6,-48.8,-21.1,-47,-28.7C-45.3,-36.2,-35.7,-40.6,-26.5,-47.9C-17.3,-55.2,-8.7,-65.2,1.4,-67.6C11.4,-70,22.9,-64.7,29.7,-56.1Z" transform="translate(100 100)" />
</svg>
